<?xml version="1.0" standalone="no"?>
<!DOCTYPE svg PUBLIC "-//W3C//DTD SVG 20010904//EN"
 "http://www.w3.org/TR/2001/REC-SVG-20010904/DTD/svg10.dtd">
<svg version="1.0" xmlns="http://www.w3.org/2000/svg"
 width="1024.000000pt" height="1024.000000pt" viewBox="0 0 1024.000000 1024.000000"
 preserveAspectRatio="xMidYMid meet">
<metadata>
Created by potrace 1.16, written by Peter Selinger 2001-2019
</metadata>
<g transform="translate(0.000000,1024.000000) scale(0.100000,-0.100000)"
fill="#000000" stroke="none">
<path d="M9611 9715 c-35 -8 -91 -23 -125 -34 -34 -11 -115 -27 -181 -36 -993
-132 -1568 -717 -1814 -1842 -91 -415 -132 -784 -196 -1723 -65 -964 -111
-1370 -200 -1763 -24 -106 -82 -318 -90 -325 -2 -2 -50 6 -107 17 -309 63
-629 91 -1083 98 -394 6 -658 -4 -1020 -38 -1365 -127 -2724 -524 -3112 -908
-126 -125 -145 -232 -61 -340 44 -57 36 -58 305 14 1481 397 2324 551 3128
571 909 24 1612 -181 2120 -616 207 -178 408 -435 540 -690 l18 -35 -34 28
c-229 184 -457 304 -799 417 -1038 346 -2607 362 -3730 39 -224 -65 -512 -187
-656 -278 l-49 -31 45 7 c25 5 101 8 170 7 157 -1 277 -31 432 -107 59 -30
103 -48 98 -42 -11 13 38 22 290 55 349 46 497 54 975 55 469 0 603 -6 955
-46 280 -31 677 -97 870 -144 30 -7 67 -16 83 -19 24 -6 26 -9 17 -29 -9 -18
-7 -17 7 3 9 14 50 58 90 98 157 158 391 215 655 162 272 -56 530 -220 710
-454 83 -107 132 -194 174 -304 l31 -84 20 29 c109 157 200 426 239 708 24
164 24 496 0 665 -69 510 -256 881 -499 991 -29 13 -54 24 -56 26 -2 1 6 45
18 97 74 339 105 716 121 1506 13 649 28 1149 41 1335 55 830 188 1360 436
1734 72 108 222 264 319 331 166 115 398 199 601 217 l88 9 74 -68 c164 -152
366 -202 514 -126 70 35 144 114 186 199 50 100 64 168 59 293 -3 88 -8 110
-35 168 -50 106 -132 173 -248 204 -64 18 -251 17 -334 -1z"/>
<path d="M1980 8249 c-421 -26 -842 -99 -1125 -196 -143 -48 -367 -161 -462
-232 -210 -155 -332 -338 -379 -568 -20 -97 -14 -360 11 -473 27 -124 103
-336 170 -478 250 -522 664 -1061 1315 -1712 307 -307 761 -723 775 -709 4 5
-18 43 -297 528 -93 161 -168 294 -166 296 2 1 50 31 108 65 229 138 636 334
894 430 104 40 79 58 203 -145 126 -205 298 -507 445 -783 72 -133 132 -241
135 -239 19 19 -260 929 -371 1209 -19 49 -31 90 -28 92 41 24 756 206 811
206 19 0 201 -475 302 -790 29 -91 54 -167 56 -169 9 -13 10 23 2 209 -9 234
-28 419 -65 638 -14 85 -24 156 -21 158 15 15 540 78 828 100 l87 6 15 -53
c27 -93 75 -320 92 -429 9 -58 20 -121 25 -140 10 -42 11 413 2 541 l-7 87
250 7 c138 3 362 2 500 -4 137 -5 251 -8 253 -6 5 5 -75 45 -187 94 -225 99
-532 189 -788 231 l-71 12 -7 51 c-10 75 -70 373 -104 510 -18 75 -24 117 -17
117 6 0 110 7 231 17 243 18 1007 24 1245 10 74 -4 132 -6 129 -3 -15 15 -483
90 -749 120 -210 24 -454 44 -700 57 -124 6 -225 12 -226 13 0 0 -36 109 -78
241 -43 132 -107 320 -143 419 -35 98 -61 181 -58 184 11 11 1129 -33 1984
-78 206 -11 377 -18 379 -15 6 6 -3 8 -303 66 -1488 288 -2753 458 -3780 509
-241 12 -916 11 -1115 -1z m2235 -467 c36 -7 42 -13 88 -92 138 -237 417 -751
417 -766 0 -2 -80 -4 -177 -4 -161 0 -328 -7 -619 -26 l-102 -7 -48 89 c-117
216 -299 502 -446 701 -37 51 -68 95 -68 98 0 11 892 18 955 7z m-1439 -178
c222 -272 565 -747 550 -761 -3 -4 -83 -17 -177 -29 -93 -13 -269 -40 -391
-60 -121 -19 -224 -32 -228 -27 -5 4 -56 84 -115 178 -129 204 -271 411 -417
604 -60 79 -107 146 -104 148 17 17 555 85 717 91 l46 2 119 -146z m-1011
-837 c83 -93 151 -172 153 -177 2 -4 -14 -11 -35 -14 -101 -18 -795 -213 -895
-251 -14 -5 -22 10 -48 92 -50 154 -70 259 -76 388 -12 239 57 404 228 546
l62 52 231 -234 c126 -129 298 -310 380 -402z m3127 -202 c48 -108 132 -315
182 -449 l26 -68 -23 5 c-90 23 -616 16 -843 -12 l-62 -7 -36 110 c-20 61 -63
178 -96 260 -33 83 -58 151 -57 152 10 10 829 125 851 120 5 -1 31 -51 58
-111z m-1281 -177 c75 -134 212 -398 208 -403 -2 -2 -63 -15 -134 -30 -150
-31 -389 -90 -556 -138 l-116 -33 -33 76 c-19 41 -76 159 -127 263 -51 103
-90 187 -86 187 5 0 96 20 203 45 195 45 554 123 577 124 6 1 35 -41 64 -91z
m-1260 -333 c150 -198 281 -387 272 -395 -4 -4 -84 -36 -178 -70 -210 -78
-469 -185 -723 -297 -106 -47 -194 -84 -196 -82 -6 8 -213 385 -280 511 l-67
128 24 9 c61 24 451 146 637 200 378 111 414 120 425 107 6 -6 44 -56 86 -111z"/>
<path d="M2496 2165 c-253 -64 -416 -276 -416 -540 0 -376 270 -761 661 -944
118 -56 224 -82 354 -88 202 -9 339 39 460 161 112 113 155 225 155 401 0 120
-17 206 -63 319 -124 310 -417 575 -742 672 -113 33 -314 43 -409 19z m526
-415 c163 -50 318 -207 374 -377 13 -40 19 -85 19 -148 -1 -102 -19 -154 -75
-218 -192 -219 -588 -65 -720 278 -18 46 -23 82 -24 155 -1 88 1 100 32 162
71 144 223 201 394 148z"/>
<path d="M6792 2160 c-104 -28 -167 -65 -248 -145 -111 -110 -154 -222 -154
-401 0 -243 110 -485 315 -689 147 -147 334 -259 511 -306 108 -28 278 -36
370 -16 213 45 366 194 420 407 22 85 14 265 -15 365 -49 169 -183 382 -318
505 -130 119 -316 225 -473 270 -111 32 -309 37 -408 10z m540 -410 c238 -73
430 -362 389 -584 -43 -233 -259 -325 -499 -211 -92 44 -211 159 -259 250
-174 334 38 648 369 545z"/>
</g>
</svg>
